<svg width="400" height="400" viewBox="0 0 400 400" fill="none" xmlns="http://www.w3.org/2000/svg">
<rect width="400" height="400" fill="#01122C"/>
<path d="M75 110.5V56C75 51.5817 78.5817 48 83 48H137.5" stroke="#1879A3" stroke-width="5"/>
<path d="M262.5 48H317C321.418 48 325 51.5817 325 56V110.5" stroke="#1879A3" stroke-width="5"/>
<path d="M75 235.5V290C75 294.418 78.5817 298 83 298H137.5" stroke="#1879A3" stroke-width="5"/>
<path d="M325 235.5V290C325 294.418 321.418 298 317 298H262.5" stroke="#1879A3" stroke-width="5"/>
<path d="M204.5 48L230.604 51.3058M204.5 48L178.81 51.3058M204.5 48L186.269 90.562M204.5 48L222.731 90.562M230.604 51.3058L264.581 69.0744M230.604 51.3058L222.731 90.562M264.581 69.0744L282.812 96.3471M264.581 69.0744L222.731 90.562M282.812 96.3471L294 135.603M282.812 96.3471L222.731 90.562M282.812 96.3471L246.764 109.983M282.812 96.3471L261.266 137.669M294 135.603V160.81M294 135.603L261.266 137.669M294 160.81L289.442 194.281M294 160.81L278.255 144.281M294 160.81H264.581M289.442 194.281L278.255 243.041M289.442 194.281L264.581 160.81M289.442 194.281H261.266M278.255 243.041L235.162 289.322M278.255 243.041L261.266 194.281M278.255 243.041L253.808 239.322M235.162 289.322L204.5 298M235.162 289.322L253.808 239.322M235.162 289.322L238.477 245.521M235.162 289.322L219.002 262.05M235.162 289.322L204.5 264.942M204.5 298L174.667 289.322M204.5 298L186.269 262.05M204.5 298V264.942M204.5 298L219.002 262.05M174.667 289.322L131.988 243.041M174.667 289.322L204.5 264.942M174.667 289.322L186.269 262.05M174.667 289.322L170.109 245.521M174.667 289.322L155.192 239.322M131.988 243.041L119.144 194.281M131.988 243.041L147.319 194.281M131.988 243.041L155.192 239.322M119.144 194.281L115 160.81M119.144 194.281L142.347 160.81M119.144 194.281H147.319M115 160.81V135.603M115 160.81L128.674 144.281M115 160.81H142.347M115 135.603L124.944 96.3471M115 135.603L147.319 137.669M124.944 96.3471L145.248 69.0744M124.944 96.3471L186.269 90.562M124.944 96.3471L162.236 109.983M124.944 96.3471L147.319 137.669M145.248 69.0744L178.81 51.3058M145.248 69.0744L186.269 90.562M178.81 51.3058L186.269 90.562M222.731 90.562L204.5 135.603M222.731 90.562L246.764 109.983M222.731 90.562H204.5H186.269M186.269 90.562L162.236 109.983M186.269 90.562L204.5 135.603M162.236 109.983L183.782 146.347M162.236 109.983L147.319 137.669M162.236 109.983L204.5 135.603M147.319 137.669L128.674 144.281M147.319 137.669L142.347 160.81M147.319 137.669L151.877 156.678M147.319 137.669L162.236 140.562M128.674 144.281L142.347 160.81M142.347 160.81L151.877 156.678M142.347 160.81L147.319 194.281M142.347 160.81L151.877 165.355M151.877 156.678L162.236 153.372M151.877 156.678L162.236 140.562M162.236 140.562L183.782 146.347M162.236 140.562V153.372M162.236 140.562L171.352 156.678M183.782 146.347L204.5 135.603M183.782 146.347L194.97 156.678M183.782 146.347L171.352 156.678M183.782 146.347L181.711 167.421M204.5 135.603L246.764 109.983M204.5 135.603L226.046 146.347M204.5 135.603L194.97 156.678M204.5 135.603V160.81M204.5 135.603L213.201 156.678M226.046 146.347L246.764 109.983M226.046 146.347L246.764 140.562M226.046 146.347V165.355M226.046 146.347L238.477 156.678M226.046 146.347L213.201 156.678M246.764 109.983L261.266 137.669M261.266 137.669L278.255 144.281M261.266 137.669L264.581 160.81M261.266 137.669L246.764 140.562M261.266 137.669L256.708 156.678M278.255 144.281L264.581 160.81M264.581 160.81L256.708 156.678M264.581 160.81L256.708 165.355M264.581 160.81L261.266 194.281M246.764 140.562L256.708 156.678M246.764 140.562V153.372M246.764 140.562L238.477 156.678M256.708 156.678L246.764 153.372M246.764 153.372L238.477 156.678M238.477 156.678L226.046 165.355M226.046 165.355L213.201 156.678M226.046 165.355L222.731 182.711M226.046 165.355L238.477 167.421M194.97 156.678L204.5 160.81M194.97 156.678L181.711 167.421M194.97 156.678L204.5 174.86M194.97 156.678L189.583 204.198M204.5 160.81L213.201 156.678M204.5 160.81V174.86M213.201 156.678L204.5 174.86M213.201 156.678L219.002 204.198M181.711 167.421L171.352 156.678M181.711 167.421L183.782 182.711M181.711 167.421H171.352M171.352 156.678L162.236 153.372M147.319 194.281L151.877 165.355M147.319 194.281L183.782 182.711M147.319 194.281L171.352 167.421M147.319 194.281L155.192 239.322M147.319 194.281L181.711 217.421M151.877 165.355L162.236 167.421H171.352M171.352 167.421L183.782 182.711M183.782 182.711L181.711 217.421M183.782 182.711L189.583 204.198M181.711 217.421L155.192 239.322M181.711 217.421L183.782 243.041M181.711 217.421L170.109 245.521M181.711 217.421L194.97 239.322M181.711 217.421L189.583 212.463H194.97M181.711 217.421L204.5 225.273M181.711 217.421L189.583 204.198M155.192 239.322L170.109 245.521M170.109 245.521L183.782 243.041M170.109 245.521L181.711 250.479M170.109 245.521L186.269 262.05M183.782 243.041L194.97 239.322M194.97 239.322H204.5M194.97 239.322L204.5 225.273M194.97 239.322L204.5 250.479M194.97 239.322L181.711 250.479M204.5 239.322H213.201M204.5 239.322V250.479M213.201 239.322L226.046 243.041M213.201 239.322L226.046 217.421M213.201 239.322L226.046 250.479M213.201 239.322L204.5 250.479M213.201 239.322L204.5 225.273M226.046 243.041L238.477 245.521M226.046 243.041V217.421M238.477 245.521L253.808 239.322M238.477 245.521L226.046 217.421M238.477 245.521L219.002 262.05M238.477 245.521L226.046 250.479M253.808 239.322L261.266 194.281M253.808 239.322L226.046 217.421M261.266 194.281L256.708 165.355M261.266 194.281L226.046 217.421M261.266 194.281L222.731 182.711M261.266 194.281L238.477 167.421M256.708 165.355L246.764 167.421H238.477M238.477 167.421L222.731 182.711M222.731 182.711L219.002 204.198M222.731 182.711L226.046 217.421M219.002 204.198H204.5M219.002 204.198L204.5 174.86M219.002 204.198L213.201 212.463M219.002 204.198L226.046 217.421M204.5 204.198H189.583M204.5 204.198V174.86M204.5 204.198V225.273M189.583 204.198L204.5 174.86M189.583 204.198L194.97 212.463M194.97 212.463L204.5 225.273M204.5 225.273L213.201 212.463M204.5 225.273L226.046 217.421M213.201 212.463H219.002L226.046 217.421M204.5 250.479V264.942M204.5 250.479H226.046M204.5 250.479H181.711M204.5 250.479L186.269 262.05M204.5 250.479L219.002 262.05M204.5 264.942L219.002 262.05M204.5 264.942L186.269 262.05M219.002 262.05L226.046 250.479M181.711 250.479L186.269 262.05" stroke="#8BFAFE" stroke-width="2"/>
<circle cx="125.5" cy="96.5" r="2.5" fill="#D1FFFF"/>
<circle cx="204.5" cy="175.5" r="2.5" fill="#D1FFFF"/>
<circle cx="183.5" cy="146.5" r="2.5" fill="#D1FFFF"/>
<circle cx="213.5" cy="156.5" r="2.5" fill="#D1FFFF"/>
<circle cx="204.5" cy="161.5" r="2.5" fill="#D1FFFF"/>
<circle cx="194.5" cy="156.5" r="2.5" fill="#D1FFFF"/>
<circle cx="162.5" cy="141.5" r="2.5" fill="#D1FFFF"/>
<circle cx="204.5" cy="135.5" r="2.5" fill="#D1FFFF"/>
<circle cx="293.5" cy="135.5" r="2.5" fill="#D1FFFF"/>
<circle cx="223.5" cy="90.5" r="2.5" fill="#D1FFFF"/>
<circle cx="223.5" cy="90.5" r="2.5" fill="#D1FFFF"/>
<circle cx="223.5" cy="90.5" r="2.5" fill="#D1FFFF"/>
<circle cx="223.5" cy="90.5" r="2.5" fill="#D1FFFF"/>
<circle cx="223.5" cy="90.5" r="2.5" fill="#D1FFFF"/>
<circle cx="223.5" cy="90.5" r="2.5" fill="#D1FFFF"/>
<circle cx="161.5" cy="110.5" r="2.5" fill="#D1FFFF"/>
<circle cx="145.5" cy="69.5" r="2.5" fill="#D1FFFF"/>
<circle cx="178.5" cy="51.5" r="2.5" fill="#D1FFFF"/>
<circle cx="185.5" cy="90.5" r="2.5" fill="#D1FFFF"/>
<circle cx="204.5" cy="47.5" r="2.5" fill="#D1FFFF"/>
<circle cx="230.5" cy="51.5" r="2.5" fill="#D1FFFF"/>
<circle cx="264.5" cy="69.5" r="2.5" fill="#D1FFFF"/>
<circle cx="246.5" cy="110.5" r="2.5" fill="#D1FFFF"/>
<circle cx="282.5" cy="96.5" r="2.5" fill="#D1FFFF"/>
<circle cx="277.5" cy="144.5" r="2.5" fill="#D1FFFF"/>
<circle cx="261.5" cy="138.5" r="2.5" fill="#D1FFFF"/>
<circle cx="246.5" cy="140.5" r="2.5" fill="#D1FFFF"/>
<circle cx="226.5" cy="146.5" r="2.5" fill="#D1FFFF"/>
<circle cx="226.5" cy="165.5" r="2.5" fill="#D1FFFF"/>
<circle cx="152.5" cy="166.5" r="2.5" fill="#D1FFFF"/>
<circle cx="171.5" cy="166.5" r="2.5" fill="#D1FFFF"/>
<circle cx="181.5" cy="167.5" r="2.5" fill="#D1FFFF"/>
<circle cx="171.5" cy="156.5" r="2.5" fill="#D1FFFF"/>
<circle cx="162.5" cy="153.5" r="2.5" fill="#D1FFFF"/>
<circle cx="238.5" cy="156.5" r="2.5" fill="#D1FFFF"/>
<circle cx="246.5" cy="153.5" r="2.5" fill="#D1FFFF"/>
<circle cx="256.5" cy="156.5" r="2.5" fill="#D1FFFF"/>
<circle cx="256.5" cy="165.5" r="2.5" fill="#D1FFFF"/>
<circle cx="238.5" cy="168.5" r="2.5" fill="#D1FFFF"/>
<circle cx="265.5" cy="161.5" r="2.5" fill="#D1FFFF"/>
<circle cx="293.5" cy="161.5" r="2.5" fill="#D1FFFF"/>
<circle cx="204.5" cy="239.5" r="2.5" fill="#D1FFFF"/>
<circle cx="184.5" cy="242.5" r="2.5" fill="#D1FFFF"/>
<circle cx="226.5" cy="242.5" r="2.5" fill="#D1FFFF"/>
<circle cx="288.5" cy="195.5" r="2.5" fill="#D1FFFF"/>
<circle cx="194.5" cy="212.5" r="2.5" fill="#D1FFFF"/>
<circle cx="214.5" cy="212.5" r="2.5" fill="#D1FFFF"/>
<circle cx="189.5" cy="203.5" r="2.5" fill="#D1FFFF"/>
<circle cx="219.5" cy="203.5" r="2.5" fill="#D1FFFF"/>
<circle cx="204.5" cy="203.5" r="2.5" fill="#D1FFFF"/>
<circle cx="183.5" cy="182.5" r="2.5" fill="#D1FFFF"/>
<circle cx="223.5" cy="182.5" r="2.5" fill="#D1FFFF"/>
<circle cx="260.5" cy="193.5" r="2.5" fill="#D1FFFF"/>
<circle cx="226.5" cy="217.5" r="2.5" fill="#D1FFFF"/>
<circle cx="204.5" cy="224.5" r="2.5" fill="#D1FFFF"/>
<circle cx="181.5" cy="217.5" r="2.5" fill="#D1FFFF"/>
<circle cx="214.5" cy="239.5" r="2.5" fill="#D1FFFF"/>
<circle cx="194.5" cy="239.5" r="2.5" fill="#D1FFFF"/>
<circle cx="277.5" cy="242.5" r="2.5" fill="#D1FFFF"/>
<circle cx="253.5" cy="238.5" r="2.5" fill="#D1FFFF"/>
<circle cx="204.5" cy="250.5" r="2.5" fill="#D1FFFF"/>
<circle cx="226.5" cy="250.5" r="2.5" fill="#D1FFFF"/>
<circle cx="238.5" cy="245.5" r="2.5" fill="#D1FFFF"/>
<circle cx="214.5" cy="273.5" r="2.5" fill="#D1FFFF"/>
<circle cx="219.5" cy="261.5" r="2.5" fill="#D1FFFF"/>
<circle cx="204.5" cy="264.5" r="2.5" fill="#D1FFFF"/>
<circle cx="235.5" cy="288.5" r="2.5" fill="#D1FFFF"/>
<circle cx="204.5" cy="297.5" r="2.5" fill="#D1FFFF"/>
<circle cx="192.5" cy="273.5" r="2.5" fill="#D1FFFF"/>
<circle cx="185.5" cy="261.5" r="2.5" fill="#D1FFFF"/>
<circle cx="182.5" cy="250.5" r="2.5" fill="#D1FFFF"/>
<circle cx="169.5" cy="245.5" r="2.5" fill="#D1FFFF"/>
<circle cx="152.5" cy="156.5" r="2.5" fill="#D1FFFF"/>
<circle cx="147.5" cy="193.5" r="2.5" fill="#D1FFFF"/>
<circle cx="119.5" cy="193.5" r="2.5" fill="#D1FFFF"/>
<circle cx="174.5" cy="288.5" r="2.5" fill="#D1FFFF"/>
<circle cx="155.5" cy="238.5" r="2.5" fill="#D1FFFF"/>
<circle cx="132.5" cy="242.5" r="2.5" fill="#D1FFFF"/>
<circle cx="141.5" cy="161.5" r="2.5" fill="#D1FFFF"/>
<circle cx="114.5" cy="161.5" r="2.5" fill="#D1FFFF"/>
<circle cx="147.5" cy="137.5" r="2.5" fill="#D1FFFF"/>
<circle cx="114.5" cy="135.5" r="2.5" fill="#D1FFFF"/>
<circle cx="128.5" cy="144.5" r="2.5" fill="#D1FFFF"/>
<g filter="url(#filter0_d)">
<path d="M115.414 373.328L108.641 373C107.859 373 107.117 373.039 106.414 373.117C105.148 373.258 104.156 373.328 103.438 373.328C102.734 373.328 102.242 373.273 101.961 373.164C101.68 373.07 101.453 372.953 101.281 372.812C100.969 372.562 100.812 372.289 100.812 371.992C100.812 371.258 101.117 370.891 101.727 370.891L103.227 371.031C104.305 371.031 105.023 370.609 105.383 369.766C105.695 369.031 105.852 367.641 105.852 365.594V344.102C105.852 341.992 105.711 340.625 105.43 340C105.148 339.375 104.812 338.945 104.422 338.711C104.031 338.477 103.516 338.359 102.875 338.359L101.727 338.5C101.43 338.5 101.203 338.398 101.047 338.195C100.891 337.992 100.812 337.789 100.812 337.586C100.812 337.383 100.844 337.203 100.906 337.047C100.984 336.875 101.109 336.719 101.281 336.578C101.703 336.234 102.258 336.062 102.945 336.062C103.633 336.062 104.219 336.078 104.703 336.109L107.445 336.344C107.883 336.391 108.383 336.414 108.945 336.414H128.586C128.695 337.148 128.852 337.891 129.055 338.641L129.641 340.867C130.094 342.539 130.32 343.656 130.32 344.219C130.32 344.766 130.148 345.039 129.805 345.039C129.539 345.039 129.195 344.773 128.773 344.242C128.352 343.711 127.883 343.156 127.367 342.578C126.852 341.984 126.273 341.453 125.633 340.984C124.18 339.969 122.422 339.461 120.359 339.461H113.562C112.875 339.461 112.336 339.688 111.945 340.141C111.57 340.594 111.383 341.219 111.383 342.016V351.625C111.383 352.453 112.062 352.867 113.422 352.867H119.867C120.93 352.867 121.914 352.32 122.82 351.227C123.133 350.852 123.367 350.484 123.523 350.125C123.68 349.75 123.805 349.5 123.898 349.375C124.008 349.25 124.172 349.188 124.391 349.188C124.859 349.188 125.094 349.625 125.094 350.5L124.906 354.555L125.094 358.234C125.094 359.109 124.859 359.547 124.391 359.547C124.062 359.547 123.812 359.312 123.641 358.844C122.984 357.391 122.047 356.469 120.828 356.078C120.484 355.969 120.164 355.914 119.867 355.914H113.398C112.758 355.914 112.258 356.055 111.898 356.336C111.555 356.602 111.383 356.938 111.383 357.344V365.594C111.383 367.625 111.508 368.938 111.758 369.531C112.008 370.125 112.305 370.523 112.648 370.727C112.992 370.93 113.445 371.031 114.008 371.031L116.984 370.82C117.25 370.82 117.461 370.945 117.617 371.195C117.773 371.43 117.852 371.641 117.852 371.828C117.852 372 117.805 372.172 117.711 372.344C117.617 372.516 117.477 372.672 117.289 372.812C116.805 373.156 116.18 373.328 115.414 373.328ZM136.039 373L132.688 373.352C132.031 373.352 131.547 373.195 131.234 372.883C130.906 372.57 130.742 372.273 130.742 371.992C130.742 371.273 131.047 370.914 131.656 370.914L132.805 371.055C133.523 371.055 134.102 370.781 134.539 370.234C135.32 369.234 136.383 367.289 137.727 364.398L150.289 337.234C150.742 336.266 151.055 335.734 151.227 335.641C151.414 335.531 151.578 335.477 151.719 335.477C151.875 335.477 152.031 335.539 152.188 335.664C152.359 335.773 152.547 335.984 152.75 336.297C153.156 336.906 153.703 337.969 154.391 339.484L166.789 366.555C167.586 368.289 168.234 369.414 168.734 369.93C169.469 370.68 170.148 371.055 170.773 371.055L171.945 370.891C172.258 370.891 172.484 371.008 172.625 371.242C172.766 371.461 172.836 371.719 172.836 372.016C172.836 372.312 172.672 372.609 172.344 372.906C172.031 373.203 171.523 373.352 170.82 373.352L166.203 373L160.391 373.352C159.25 373.352 158.508 373.031 158.164 372.391C158.086 372.219 158.047 372.062 158.047 371.922C158.047 371.25 158.336 370.914 158.914 370.914L160.602 371.125C161.555 371.125 162.031 370.852 162.031 370.305C162.031 369.648 161.711 368.625 161.07 367.234L159.453 364.141C159.234 363.688 158.922 363.352 158.516 363.133C158.125 362.898 157.516 362.781 156.688 362.781H144.406C142.797 362.781 141.781 363.281 141.359 364.281L140.68 366.297C139.852 368.25 139.422 369.492 139.391 370.023C139.391 370.711 139.953 371.055 141.078 371.055L142.25 370.891C142.516 370.891 142.727 371 142.883 371.219C143.055 371.422 143.141 371.688 143.141 372.016C143.141 372.328 142.938 372.633 142.531 372.93C142.141 373.211 141.547 373.352 140.75 373.352L136.039 373ZM154.555 359.781C156.305 359.781 157.18 359.57 157.18 359.148C157.18 359.055 157.117 358.867 156.992 358.586L151.953 346.305C151.375 344.836 150.953 344.102 150.688 344.102C150.406 344.102 150.039 344.641 149.586 345.719L144.148 358.141C143.93 358.625 143.82 358.961 143.82 359.148C143.82 359.57 144.688 359.781 146.422 359.781H154.555ZM207.711 368.125C203.914 371.734 199.203 373.539 193.578 373.539C187.562 373.539 182.727 371.719 179.07 368.078C177.367 366.406 176.062 364.453 175.156 362.219C174.25 359.984 173.797 357.742 173.797 355.492C173.797 353.242 174.023 351.258 174.477 349.539C174.93 347.805 175.57 346.219 176.398 344.781C177.227 343.344 178.227 342.062 179.398 340.938C180.586 339.797 181.898 338.844 183.336 338.078C186.305 336.484 189.633 335.688 193.32 335.688C195.977 335.688 198.531 336.281 200.984 337.469C201.438 337.688 201.852 337.797 202.227 337.797C202.602 337.797 203.094 337.484 203.703 336.859C204.328 336.234 204.75 335.82 204.969 335.617C205.203 335.414 205.43 335.312 205.648 335.312C206.086 335.312 206.305 335.664 206.305 336.367C206.305 337.055 206.312 337.633 206.328 338.102C206.359 338.57 206.406 339.031 206.469 339.484C206.594 340.375 206.789 341.312 207.055 342.297C207.602 344.406 207.875 345.656 207.875 346.047C207.875 346.438 207.773 346.719 207.57 346.891C207.367 347.047 207.164 347.125 206.961 347.125C206.461 347.125 206.102 346.922 205.883 346.516C203.195 341.578 198.594 339.109 192.078 339.109C190.453 339.109 188.875 339.477 187.344 340.211C185.828 340.93 184.477 341.938 183.289 343.234C180.664 346.078 179.352 349.5 179.352 353.5C179.352 358.609 180.945 362.703 184.133 365.781C187.148 368.672 190.953 370.117 195.547 370.117C199.172 370.117 201.93 368.625 203.82 365.641C204.539 364.516 205.117 363.078 205.555 361.328C205.805 360.344 206.234 359.852 206.844 359.852C207.422 359.852 207.711 360.352 207.711 361.352V368.125ZM223.578 366.812C223.578 368.922 224.312 369.977 225.781 369.977H230.68C234.539 369.977 237.438 369.109 239.375 367.375C239.938 366.859 240.469 366.328 240.969 365.781L241.789 364.891C242.305 364.375 242.648 364.102 242.82 364.07C243.008 364.039 243.164 364.016 243.289 364C244.102 363.953 244.047 364.828 243.125 366.625C242.188 368.5 241.406 370.625 240.781 373H221.234C220.594 373 220.039 373.016 219.57 373.047L216.852 373.281C216.383 373.328 215.883 373.352 215.352 373.352C214.836 373.352 214.43 373.297 214.133 373.188C213.852 373.094 213.633 372.977 213.477 372.836C213.164 372.57 213.008 372.297 213.008 372.016C213.008 371.719 213.086 371.461 213.242 371.242C213.398 371.008 213.625 370.891 213.922 370.891L215.422 371.055C216.5 371.055 217.227 370.578 217.602 369.625C217.914 368.844 218.07 367.391 218.07 365.266V344.102C218.07 342.023 217.922 340.664 217.625 340.023C217.344 339.383 217 338.945 216.594 338.711C216.203 338.477 215.695 338.359 215.07 338.359L213.922 338.5C213.625 338.5 213.398 338.398 213.242 338.195C213.086 337.992 213.008 337.789 213.008 337.586C213.008 337.383 213.039 337.203 213.102 337.047C213.18 336.875 213.305 336.719 213.477 336.578C213.867 336.234 214.406 336.062 215.094 336.062C215.797 336.062 216.352 336.078 216.758 336.109L217.977 336.25C219.117 336.359 220.117 336.414 220.977 336.414H240.359C240.469 337.555 240.672 338.758 240.969 340.023L241.602 342.672C241.711 343.188 241.766 343.555 241.766 343.773C241.766 344.211 241.602 344.43 241.273 344.43C241.07 344.43 240.695 344.125 240.148 343.516L238.742 341.969C237.867 341.047 237.164 340.469 236.633 340.234C236.117 339.984 235.648 339.812 235.227 339.719C234.445 339.547 233.406 339.461 232.109 339.461H225.781C224.938 339.461 224.359 339.641 224.047 340C223.734 340.359 223.578 340.875 223.578 341.547V351.531C223.578 352.359 224.266 352.773 225.641 352.773H231.43C232.523 352.773 233.523 352.227 234.43 351.133C234.742 350.758 234.977 350.391 235.133 350.031C235.289 349.656 235.414 349.406 235.508 349.281C235.617 349.156 235.766 349.094 235.953 349.094C236.453 349.094 236.703 349.531 236.703 350.406L236.516 354.18L236.703 358.141C236.703 359.016 236.453 359.453 235.953 359.453C235.766 359.453 235.625 359.391 235.531 359.266C235.438 359.125 235.312 358.875 235.156 358.516C235 358.141 234.758 357.773 234.43 357.414C234.117 357.039 233.789 356.734 233.445 356.5C232.789 356.031 232.117 355.797 231.43 355.797H225.617C224.961 355.797 224.453 355.938 224.094 356.219C223.75 356.5 223.578 356.844 223.578 357.25V366.812ZM249.195 359.898C248.648 359.898 248.211 359.75 247.883 359.453C247.57 359.141 247.414 358.711 247.414 358.164C247.414 357.602 247.578 357.172 247.906 356.875C248.25 356.578 248.695 356.43 249.242 356.43H259.883C260.43 356.43 260.875 356.578 261.219 356.875C261.562 357.172 261.734 357.602 261.734 358.164C261.734 358.711 261.57 359.141 261.242 359.453C260.914 359.75 260.477 359.898 259.93 359.898H249.195ZM270.242 373L266.352 373.328C265.82 373.328 265.359 373.18 264.969 372.883C264.594 372.586 264.406 372.289 264.406 371.992C264.406 371.68 264.492 371.422 264.664 371.219C264.82 371 265.031 370.891 265.297 370.891L266.633 371.055C267.352 371.055 268.383 370.219 269.727 368.547L280.742 355.281L269.094 339.602C268.719 339.102 268.414 338.766 268.18 338.594C267.961 338.422 267.672 338.336 267.312 338.336C267.312 338.336 266.875 338.391 266 338.5C265.406 338.5 265.109 338.18 265.109 337.539C265.109 336.914 265.516 336.469 266.328 336.203C266.609 336.109 266.938 336.062 267.312 336.062C267.688 336.062 268.055 336.078 268.414 336.109C270.273 336.312 271.469 336.414 272 336.414L278.305 336.062C279.102 336.062 279.695 336.219 280.086 336.531C280.492 336.828 280.695 337.164 280.695 337.539C280.695 338.164 280.406 338.477 279.828 338.477L278.023 338.289C277.008 338.289 276.5 338.578 276.5 339.156C276.5 339.484 276.664 339.875 276.992 340.328L284.891 351.227L290.047 344.922C292.188 342.297 293.258 340.367 293.258 339.133C293.258 338.555 292.758 338.266 291.758 338.266L289.977 338.477C289.711 338.477 289.492 338.383 289.32 338.195C289.164 337.992 289.086 337.75 289.086 337.469C289.086 337.188 289.273 336.883 289.648 336.555C290.023 336.227 290.68 336.062 291.617 336.062C292.57 336.062 293.453 336.125 294.266 336.25C295.094 336.359 295.812 336.414 296.422 336.414C297.047 336.414 297.672 336.359 298.297 336.25C298.922 336.125 299.539 336.062 300.148 336.062C300.773 336.062 301.273 336.219 301.648 336.531C302.039 336.828 302.234 337.125 302.234 337.422C302.234 338.141 301.938 338.5 301.344 338.5L300.008 338.336C299.648 338.336 299.227 338.578 298.742 339.062C298.258 339.531 297.656 340.203 296.938 341.078L287 353.898L298.742 369.789C299.258 370.523 299.703 370.93 300.078 371.008C300.219 371.039 300.383 371.055 300.57 371.055L301.859 370.891C302.141 370.891 302.359 370.992 302.516 371.195C302.672 371.398 302.75 371.641 302.75 371.922C302.75 372.203 302.57 372.508 302.211 372.836C301.852 373.164 301.297 373.328 300.547 373.328C299.812 373.328 299.086 373.273 298.367 373.164C297.648 373.055 296.82 373 295.883 373L289.555 373.328C288.758 373.328 288.156 373.18 287.75 372.883C287.359 372.586 287.164 372.242 287.164 371.852C287.164 371.227 287.453 370.914 288.031 370.914C288.156 370.914 288.25 370.93 288.312 370.961C288.375 370.977 288.461 371 288.57 371.031C288.805 371.078 289.32 371.102 290.117 371.102C290.93 371.102 291.336 370.82 291.336 370.258C291.336 369.477 290.883 368.477 289.977 367.258L282.852 358.211L277.32 364.562C274.852 367.578 273.617 369.484 273.617 370.281C273.617 370.844 274.117 371.125 275.117 371.125L276.945 370.914C277.195 370.914 277.398 371.016 277.555 371.219C277.727 371.422 277.812 371.664 277.812 371.945C277.812 372.227 277.625 372.531 277.25 372.859C276.875 373.172 276.203 373.328 275.234 373.328C274.266 373.328 273.336 373.273 272.445 373.164C271.555 373.055 270.82 373 270.242 373Z" fill="#E4E7EA"/>
</g>
<defs>
<filter id="filter0_d" x="99.8125" y="332.312" width="209.938" height="46.2266" filterUnits="userSpaceOnUse" color-interpolation-filters="sRGB">
<feFlood flood-opacity="0" result="BackgroundImageFix"/>
<feColorMatrix in="SourceAlpha" type="matrix" values="0 0 0 0 0 0 0 0 0 0 0 0 0 0 0 0 0 0 127 0"/>
<feOffset dx="3" dy="1"/>
<feGaussianBlur stdDeviation="2"/>
<feColorMatrix type="matrix" values="0 0 0 0 0 0 0 0 0 0 0 0 0 0 0 0 0 0 1 0"/>
<feBlend mode="normal" in2="BackgroundImageFix" result="effect1_dropShadow"/>
<feBlend mode="normal" in="SourceGraphic" in2="effect1_dropShadow" result="shape"/>
</filter>
</defs>
</svg>
